<svg xmlns="http://www.w3.org/2000/svg" viewBox="0 0 1124.32 681.96"><defs><style>.cls-1{fill:#ffb717;}.cls-2{fill:#a6afbc;}.cls-3{fill:#939ba5;}.cls-4{fill:#fff;opacity:0.46;}.cls-5{fill:#7e858c;}</style></defs><g id="Layer_2" data-name="Layer 2"><g id="Layer_2-2" data-name="Layer 2"><rect class="cls-1" x="24.55" y="53.3" width="1086.49" height="326.04"/><polygon points="97 157.79 24.55 157.79 80.16 53.3 152.61 53.3 97 157.79"/><polygon points="216.81 157.79 144.35 157.79 199.96 53.3 272.42 53.3 216.81 157.79"/><polygon points="456.41 157.79 383.95 157.79 439.56 53.3 512.02 53.3 456.41 157.79"/><polygon points="576.22 157.79 503.76 157.79 559.37 53.3 631.82 53.3 576.22 157.79"/><polygon points="696.02 157.79 623.56 157.79 679.17 53.3 751.63 53.3 696.02 157.79"/><polygon points="815.82 157.79 743.36 157.79 798.97 53.3 871.43 53.3 815.82 157.79"/><polygon points="935.62 157.79 863.16 157.79 918.77 53.3 991.23 53.3 935.62 157.79"/><polygon points="1055.42 157.79 982.97 157.79 1038.57 53.3 1111.03 53.3 1055.42 157.79"/><polygon points="336.61 157.79 264.15 157.79 319.76 53.3 392.22 53.3 336.61 157.79"/><polygon points="97 377.74 24.55 377.74 80.16 273.24 152.61 273.24 97 377.74"/><polygon points="216.81 377.74 144.35 377.74 199.96 273.24 272.42 273.24 216.81 377.74"/><polygon points="456.41 377.74 383.95 377.74 439.56 273.24 512.02 273.24 456.41 377.74"/><polygon points="576.22 377.74 503.76 377.74 559.37 273.24 631.82 273.24 576.22 377.74"/><polygon points="696.02 377.74 623.56 377.74 679.17 273.24 751.63 273.24 696.02 377.74"/><polygon points="815.82 377.74 743.36 377.74 798.97 273.24 871.43 273.24 815.82 377.74"/><polygon points="935.62 377.74 863.16 377.74 918.77 273.24 991.23 273.24 935.62 377.74"/><polygon points="1055.42 377.74 982.97 377.74 1038.57 273.24 1111.03 273.24 1055.42 377.74"/><polygon points="336.61 377.74 264.15 377.74 319.76 273.24 392.22 273.24 336.61 377.74"/><path d="M162.2,225.29q0,9.19-5.6,14.09t-16.48,4.89q-10.89,0-16.47-4.89t-5.58-14.06V193.65h12.85v30.94c0,3.44.73,6,2.17,7.69s3.78,2.54,7,2.54,5.53-.81,7-2.44,2.21-4.21,2.21-7.79V193.65H162.2Z"/><path d="M219.25,243.24H206.93l-21.05-34v34H174.15V193.65h15.29l18.09,28.41V193.65h11.72Z"/><path d="M278.76,218.5a24.34,24.34,0,0,1-3.16,12.4,23,23,0,0,1-8,8.41,24.55,24.55,0,0,1-8,3.07,52.86,52.86,0,0,1-10.26.86H231.9V193.65h18a46.82,46.82,0,0,1,10.46,1,24.21,24.21,0,0,1,7.39,2.88,22.58,22.58,0,0,1,8.08,8.44A25.43,25.43,0,0,1,278.76,218.5Zm-13.22-.1a18.16,18.16,0,0,0-1.78-8.38,12.52,12.52,0,0,0-5.64-5.45,14.66,14.66,0,0,0-4-1.31,40.26,40.26,0,0,0-6.18-.35h-3.23v31h3.23a38.19,38.19,0,0,0,6.7-.42,14.39,14.39,0,0,0,4.16-1.51,12.34,12.34,0,0,0,5.13-5.35A18.75,18.75,0,0,0,265.54,218.4Z"/><path d="M324.39,243.24H288.52V193.65h35.87v9.59H301.25v8.56h21.48v9.59H301.25v12.26h23.14Z"/><path d="M382.87,243.24H367.25l-13.49-18.18h-5.92v18.18H335.12V193.65h21.44a49.58,49.58,0,0,1,7.56.5,16.43,16.43,0,0,1,5.93,2.16,13,13,0,0,1,4.45,4.32,12.34,12.34,0,0,1,1.65,6.64,14.72,14.72,0,0,1-2.55,9,19.16,19.16,0,0,1-7.28,5.76Zm-19.94-34.4a6.32,6.32,0,0,0-.77-3.2,5.18,5.18,0,0,0-2.63-2.1,10,10,0,0,0-3-.65c-1.16-.07-2.5-.11-4-.11h-4.63v13.35h3.93a36.67,36.67,0,0,0,5.13-.3,7.35,7.35,0,0,0,3.46-1.36,6.65,6.65,0,0,0,1.95-2.28A7.67,7.67,0,0,0,362.93,208.84Z"/><path d="M434.2,244.21A31,31,0,0,1,424,242.58a21.23,21.23,0,0,1-13.26-12.93,31.06,31.06,0,0,1-1.84-11.15,30.66,30.66,0,0,1,1.76-10.69,23,23,0,0,1,5.13-8.23,21.68,21.68,0,0,1,8-5.1,29.65,29.65,0,0,1,10.44-1.79,40.26,40.26,0,0,1,5.65.35,38.15,38.15,0,0,1,4.64.91,32.81,32.81,0,0,1,4.05,1.42c1.21.52,2.27,1,3.18,1.45v12h-1.47q-.93-.79-2.34-1.89a30.5,30.5,0,0,0-3.22-2.15,21.61,21.61,0,0,0-4-1.79,13.88,13.88,0,0,0-4.56-.73,15.59,15.59,0,0,0-5.13.84,12.7,12.7,0,0,0-4.5,2.81,13.88,13.88,0,0,0-3.18,5,21,21,0,0,0-1.22,7.58,20.09,20.09,0,0,0,1.32,7.78,13.67,13.67,0,0,0,3.31,4.92,12.32,12.32,0,0,0,4.53,2.61,16.51,16.51,0,0,0,4.93.78,15.49,15.49,0,0,0,4.61-.7,17.52,17.52,0,0,0,4.22-1.89,27.19,27.19,0,0,0,3-2.05c.93-.73,1.7-1.36,2.3-1.89h1.33V240l-3.56,1.56a30.71,30.71,0,0,1-3.57,1.27,43.19,43.19,0,0,1-4.56,1.06A35.75,35.75,0,0,1,434.2,244.21Z"/><path d="M509.37,218.46q0,11.86-6.8,18.84t-18.78,7q-12,0-18.75-7t-6.8-18.84q0-12,6.8-18.9t18.75-6.94q11.93,0,18.75,6.94T509.37,218.46Zm-17,12.56a14.72,14.72,0,0,0,2.77-5.35,25.9,25.9,0,0,0,.9-7.24,24.6,24.6,0,0,0-1-7.59,14.8,14.8,0,0,0-2.7-5.07,10.09,10.09,0,0,0-3.92-2.89,12.1,12.1,0,0,0-4.61-.9,12.27,12.27,0,0,0-4.58.86,10.72,10.72,0,0,0-3.94,2.87,14,14,0,0,0-2.72,5.14,25,25,0,0,0-1.05,7.61,24.44,24.44,0,0,0,1,7.55,15,15,0,0,0,2.68,5.08,10.21,10.21,0,0,0,3.9,2.89,12.14,12.14,0,0,0,9.39,0A10.41,10.41,0,0,0,492.41,231Z"/><path d="M564.22,243.24H551.9l-21-34v34H519.12V193.65h15.29l18.09,28.41V193.65h11.72Z"/><path d="M616.57,227.66a14.14,14.14,0,0,1-6.21,11.9q-6.21,4.59-16.87,4.58a47.28,47.28,0,0,1-10.74-1.08,55.12,55.12,0,0,1-8.57-2.75V228.42h1.4a29.81,29.81,0,0,0,8.87,4.87A26.26,26.26,0,0,0,597,234.78a12.25,12.25,0,0,0,3.1-.66,7.73,7.73,0,0,0,2.41-1.5,3.52,3.52,0,0,0,.95-2.67,3.6,3.6,0,0,0-1.38-2.81,9.67,9.67,0,0,0-4-1.82c-1.86-.44-3.84-.86-5.91-1.24a45.4,45.4,0,0,1-5.85-1.49q-6.26-2-9-5.51a13.46,13.46,0,0,1-2.75-8.64q0-6.93,6.21-11.31t16-4.38a49.69,49.69,0,0,1,9.67.95,45.3,45.3,0,0,1,8.28,2.38v11.43h-1.37a26.24,26.24,0,0,0-7.34-4,25.47,25.47,0,0,0-8.88-1.61,24.26,24.26,0,0,0-3.18.21,12.65,12.65,0,0,0-3,.82,5.73,5.73,0,0,0-2.23,1.52,3.27,3.27,0,0,0-.94,2.31,3.45,3.45,0,0,0,1.5,3,16.86,16.86,0,0,0,5.66,1.92l5.25,1.1a54.19,54.19,0,0,1,5.41,1.46q5.7,1.88,8.41,5.08A12.52,12.52,0,0,1,616.57,227.66Z"/><path d="M664.13,203.24H648.65v40H635.86v-40H620.37v-9.59h43.76Z"/><path d="M719.59,243.24H704l-13.49-18.18h-5.93v18.18H671.83V193.65h21.45a49.67,49.67,0,0,1,7.56.5,16.44,16.44,0,0,1,5.92,2.16,13,13,0,0,1,4.45,4.32,12.34,12.34,0,0,1,1.65,6.64,14.72,14.72,0,0,1-2.55,9A19.16,19.16,0,0,1,703,222Zm-20-34.4a6.32,6.32,0,0,0-.77-3.2,5.18,5.18,0,0,0-2.63-2.1,10,10,0,0,0-3-.65c-1.16-.07-2.5-.11-4-.11h-4.63v13.35h3.93a36.67,36.67,0,0,0,5.13-.3,7.35,7.35,0,0,0,3.46-1.36,6.65,6.65,0,0,0,1.95-2.28A7.67,7.67,0,0,0,699.64,208.84Z"/><path d="M768.61,225.29q0,9.19-5.59,14.09t-16.49,4.89q-10.89,0-16.47-4.89t-5.58-14.06V193.65h12.86v30.94c0,3.44.72,6,2.16,7.69s3.79,2.54,7,2.54,5.53-.81,7-2.44,2.21-4.21,2.21-7.79V193.65h12.86Z"/><path d="M803,244.21a31,31,0,0,1-10.21-1.63,21.18,21.18,0,0,1-13.25-12.93,33.94,33.94,0,0,1-.09-21.84,23,23,0,0,1,5.13-8.23,21.85,21.85,0,0,1,8-5.1A29.65,29.65,0,0,1,803,192.69a40.26,40.26,0,0,1,5.65.35,38.33,38.33,0,0,1,4.65.91,33.23,33.23,0,0,1,4,1.42c1.21.52,2.27,1,3.18,1.45v12h-1.46c-.62-.53-1.41-1.16-2.35-1.89a31.38,31.38,0,0,0-3.21-2.15,22,22,0,0,0-4-1.79,13.88,13.88,0,0,0-4.56-.73,15.59,15.59,0,0,0-5.13.84,12.7,12.7,0,0,0-4.5,2.81,13.88,13.88,0,0,0-3.18,5,21,21,0,0,0-1.21,7.58,20.29,20.29,0,0,0,1.31,7.78,13.69,13.69,0,0,0,3.32,4.92,12.17,12.17,0,0,0,4.53,2.61,16.41,16.41,0,0,0,4.93.78,15.53,15.53,0,0,0,4.61-.7,17.63,17.63,0,0,0,4.21-1.89,27.19,27.19,0,0,0,3-2.05c.93-.73,1.7-1.36,2.3-1.89h1.33V240L817,241.51a29.9,29.9,0,0,1-3.56,1.27,43.92,43.92,0,0,1-4.57,1.06A35.67,35.67,0,0,1,803,244.21Z"/><path d="M868.72,203.24H853.24v40H840.45v-40H825v-9.59h43.76Z"/><path d="M903.23,243.24h-29v-8.79h8.12v-32h-8.12v-8.79h29v8.79H895.1v32h8.13Z"/><path d="M961.88,218.46q0,11.86-6.8,18.84t-18.78,7q-12,0-18.75-7t-6.79-18.84q0-12,6.79-18.9t18.75-6.94q11.93,0,18.75,6.94T961.88,218.46Zm-17,12.56a14.86,14.86,0,0,0,2.76-5.35,25.9,25.9,0,0,0,.9-7.24,24.3,24.3,0,0,0-1-7.59,14.8,14.8,0,0,0-2.7-5.07,10.13,10.13,0,0,0-3.91-2.89,12.18,12.18,0,0,0-4.62-.9,12.31,12.31,0,0,0-4.58.86,10.8,10.8,0,0,0-3.94,2.87,14.11,14.11,0,0,0-2.72,5.14,25,25,0,0,0-1.05,7.61,24.44,24.44,0,0,0,1,7.55,15,15,0,0,0,2.68,5.08,10.21,10.21,0,0,0,3.9,2.89,12.14,12.14,0,0,0,9.39,0A10.37,10.37,0,0,0,944.93,231Z"/><path d="M1016.73,243.24h-12.32l-21-34v34H971.64V193.65h15.28L1005,222.06V193.65h11.72Z"/><rect class="cls-2" x="11.19" y="14.94" width="40.47" height="652.07"/><rect class="cls-2" width="61.63" height="14.94"/><rect class="cls-2" x="0.61" y="667.01" width="61.63" height="14.94"/><rect class="cls-3" x="35.35" y="14.94" width="9.06" height="652.07"/><rect class="cls-4" x="17.1" y="14.94" width="9.06" height="652.07"/><path class="cls-5" d="M11.19,14.94H51.66V39.43S49.2,29.65,35.4,24.35s-24.21-3.56-24.21-3.56Z"/><rect class="cls-2" x="1073.26" y="14.94" width="40.47" height="652.07"/><rect class="cls-2" x="1062.07" width="61.63" height="14.94"/><rect class="cls-2" x="1062.68" y="667.01" width="61.63" height="14.94"/><rect class="cls-3" x="1097.42" y="14.94" width="9.06" height="652.07"/><rect class="cls-4" x="1079.17" y="14.94" width="9.06" height="652.07"/><path class="cls-5" d="M1073.26,14.94h40.48V39.43s-2.47-9.78-16.27-15.08-24.21-3.56-24.21-3.56Z"/></g></g></svg>